<?xml version="1.0" encoding="utf-8"?>
<svg xmlns="http://www.w3.org/2000/svg" version="1.1" viewBox="0 0 100 32" xmlns:bx="https://boxy-svg.com" width="100px" height="32px"><defs><style>
      .cls-1 {
        fill: #ba00d6;
      }
    </style><style bx:fonts="Alexandria">@import url(https://fonts.googleapis.com/css2?family=Alexandria%3Aital%2Cwght%400%2C100..900&amp;display=swap);</style><bx:export><bx:file format="svg" path="Sem título.svg"/></bx:export></defs><g><g id="Camada_1"><g><g><path class="cls-1" d="M75.99,11.12c5,.07,8.27,4.44,6.69,8.91-1.23,3.47-5.24,5.3-9.14,4.15-3.55-1.05-5.56-4.51-4.68-8.07.74-2.98,3.68-5.04,7.13-5ZM75.85,21.1c1.84,0,3.13-1.36,3.14-3.3,0-1.93-1.3-3.32-3.12-3.32-1.82,0-3.15,1.39-3.15,3.31,0,1.92,1.31,3.32,3.13,3.32Z"/><path class="cls-1" d="M54.32,18.02c0-3.76,3.12-6.61,7.17-6.58,4,.03,7.04,2.86,7.04,6.53,0,3.88-3.05,6.74-7.12,6.72-4.05-.02-7.09-2.88-7.08-6.67ZM64.51,18c-.01-1.91-1.28-3.23-3.1-3.22-1.8,0-3.06,1.35-3.06,3.27,0,1.92,1.26,3.26,3.06,3.27,1.84,0,3.11-1.35,3.1-3.32Z"/><path class="cls-1" d="M97.31,24.17h-3.99c0-.44,0-.86,0-1.28,0-1.94.01-3.87,0-5.81-.01-1.52-1.09-2.6-2.56-2.6-1.49,0-2.57,1.02-2.59,2.57-.03,2.34,0,4.68,0,7.09h-3.92c-.02-.22-.06-.46-.06-.71,0-2.14-.02-4.28,0-6.42.02-3.13,2.06-5.49,5.23-5.77,1.36-.12,2.82-.02,4.13.34,2.4.67,3.8,2.74,3.82,5.22.02,2.34,0,4.68,0,7.03,0,.08-.02.17-.05.35Z"/><path class="cls-1" d="M40.92,20.13c1.76,1.68,3.99.82,6.02,1.18v3.04c-2.72.05-5.46.31-7.95-1.16-2.35-1.38-3.31-3.91-2.66-6.94.54-2.49,2.68-4.44,5.42-4.67,1.25-.11,2.56,0,3.78.31,1.53.38,2.48,1.51,2.65,3.11.16,1.59-.56,2.8-1.89,3.65-1.4.9-3.01,1.19-4.63,1.39-.25.03-.49.06-.74.09ZM40.1,17.71c1.35-.08,2.68-.2,3.73-1.11.28-.24.48-.86.38-1.19-.1-.33-.62-.69-1-.76-1.43-.26-3.21.85-3.11,3.06Z"/><path class="cls-1" d="M22.48,11.71c1.36,0,2.63-.03,3.91.03.2,0,.48.35.55.59.77,2.54,1.5,5.1,2.25,7.64.09.32.22.63.33.95.11.01.22.03.33.04.9-3.06,1.81-6.12,2.72-9.21h4.26c-.43,1.27-.85,2.5-1.27,3.72-.78,2.27-1.55,4.53-2.35,6.79-.53,1.51-1.91,2.42-3.57,2.42-1.67,0-3.03-.9-3.56-2.42-1.14-3.27-2.27-6.55-3.4-9.82-.07-.21-.12-.43-.2-.73Z"/><path class="cls-1" d="M49.23,6.4h3.82v17.94h-3.82V6.4Z"/></g><g><path class="cls-1" d="M8.89,6s.09.05.13.07c.71.26,1.07.98.82,1.7-.04.12-.02.2.04.29.62.91,1.24,1.83,1.86,2.74.08.12.16.15.29.15.44,0,.88-.02,1.33,0,.8.04,1.6.05,2.38.27,2.25.65,3.89,2.01,4.61,4.28,1.03,3.22-.48,6.6-3.76,7.95-.95.39-1.94.56-2.96.52-.5-.02-.97.07-1.45.2-1.3.36-2.6.71-3.9,1.07-.08.02-.17.11-.2.18-.19.52-.76.92-1.3.9-.61-.03-1.19-.48-1.29-1.15-.09-.64.31-1.28.92-1.46.52-.15.97-.03,1.36.34.05.05.16.09.22.07.84-.22,1.68-.45,2.52-.68.04,0,.07-.03.15-.06-.09-.05-.15-.08-.21-.11-1.77-.89-2.97-2.25-3.49-4.18-.15-.56-.2-1.13-.19-1.71q0-.56-.54-.67c-.41-.08-.82-.16-1.22-.25-.14-.03-.24,0-.35.08-.65.46-1.52.26-1.92-.42-.38-.65-.13-1.49.53-1.84.66-.35,1.5-.08,1.82.59.02.04.05.08.05.12.02.32.22.4.5.44.36.05.72.14,1.11.21v-4.7h3.7c-.03-.07-.05-.11-.07-.14-.45-.67-.91-1.34-1.36-2.01-.07-.11-.15-.16-.29-.15-.7.06-1.26-.36-1.43-1.03-.15-.61.17-1.24.78-1.52.06-.03.12-.07.18-.1.21,0,.43,0,.64,0ZM16.75,17.29c-.03-.18-.06-.55-.16-.9-.34-1.1-1.05-1.84-2.19-2.08-1.16-.24-2.19.03-2.97.97-.75.89-.91,1.95-.65,3.05.6,2.57,3.3,2.87,4.69,1.83.9-.67,1.25-1.6,1.28-2.87Z"/><path class="cls-1" d="M14.87,17.06c0,.3,0,.61,0,.91,0,.22-.08.29-.34.29-.26,0-.35-.06-.35-.28,0-.62,0-1.24,0-1.85,0-.22.09-.28.37-.28.24,0,.32.07.32.29,0,.31,0,.62,0,.93Z"/><path class="cls-1" d="M12.33,17.04c0-.3,0-.61,0-.91,0-.22.08-.29.34-.29.27,0,.35.06.35.28,0,.62,0,1.24,0,1.86,0,.22-.09.28-.37.28-.24,0-.32-.07-.32-.29,0-.31,0-.62,0-.93Z"/></g></g></g></g><text style="fill: rgb(51, 51, 51); font-family: Alexandria; font-size: 5.7px; font-weight: 700; white-space: pre;" transform="matrix(0.982386, 0, 0, 0.990291, 1.713789, 0.908052)" x="78.167" y="29.648">HOTEL</text></svg>